<svg xmlns="http://www.w3.org/2000/svg" width="24" height="24" viewBox="0 0 24 24">
<g>
	<g>
		<path class="st0" d="M19.8,17.5l-3-0.6c-0.9-0.2-1.5-1.9-1.7-2.7c-1,0.9-2,1.3-3.2,1.3c-1.1,0-2.1-0.4-3-1.2
			c-0.2,0.8-0.9,2.4-1.7,2.5l-3,0.6c-1.6,0.3-2.7,1.8-2.6,3.4l0.3,1.4c0,0.6,0.5,1,1.1,1h18.2c0.6,0,1-0.4,1.1-1l0.3-1.4
			C22.5,19.3,21.4,17.8,19.8,17.5L19.8,17.5z M10.5,20.3c-0.1,0-0.2,0.1-0.3,0.1c-0.2,0-0.3-0.1-0.4-0.2c-0.1-0.2-0.3-0.3-0.4-0.3
			l-3.9-0.3C5.2,19.5,5,19.3,5,19c0-0.3,0.3-0.5,0.5-0.5l3.9,0.3c0.5,0,1,0.3,1.2,0.8C10.9,19.9,10.8,20.2,10.5,20.3L10.5,20.3z
			 M18.4,19.5l-3.9,0.3c-0.2,0-0.3,0.1-0.4,0.3c-0.1,0.2-0.3,0.2-0.4,0.2c-0.1,0-0.2,0-0.3-0.1c-0.2-0.1-0.3-0.5-0.2-0.7
			c0.3-0.4,0.7-0.7,1.2-0.8l3.9-0.3c0.3,0,0.5,0.2,0.5,0.5C18.9,19.3,18.7,19.5,18.4,19.5L18.4,19.5z M18.4,19.5"/>
	</g>
	<path d="M11.8,15c2.9,0,5.3-4.2,5.3-7.8s-2.4-6.5-5.3-6.5c-2.9,0-5.3,2.9-5.3,6.5S8.9,15,11.8,15L11.8,15z M8.2,7.4
		c-0.3,0-0.6-0.3-0.6-0.6c0-0.3,0.3-0.6,0.6-0.6c0.3,0,0.6,0.3,0.6,0.6C8.8,7.1,8.5,7.4,8.2,7.4L8.2,7.4z M8.7,5.7
		c-0.1,0-0.2,0-0.2,0C8.1,5.6,7.9,5.2,8.1,4.9C8.8,3.1,10.2,2,11.8,2c0.3,0,0.6,0.3,0.6,0.6c0,0.3-0.3,0.6-0.6,0.6
		c-1.1,0-2.1,0.7-2.6,2.1C9.1,5.6,8.9,5.7,8.7,5.7L8.7,5.7z M8.7,5.7"/>
</g>
</svg>
