<svg xmlns="http://www.w3.org/2000/svg" width="24" height="24" viewBox="0 0 24 24">
<g>
	<g>
		<path class="st0" d="M22.5,22.4c-0.1-0.2-0.2-0.4-0.4-0.4c-0.7-0.2-3.3-0.3-5.3-2.7c-0.3-0.4-0.7-0.6-0.8-2V5.9
			c0-1.6-1.1-2.9-2.7-3.2l-10.7-2c-0.2,0-0.4,0-0.5,0.1C2,1.1,1.9,1.2,1.9,1.4v5.7c0,0.2,0.1,0.3,0.2,0.5c0.1,0.1,0.3,0.2,0.5,0.2
			l9-0.6c-0.3,2.3,0,4.7,0.9,6.9l0.4,1.1c0.5,1.4,0.6,2.9,0.2,4.4c0,0-0.2,0.7-0.2,0.9c-0.3,0.8-0.3,1.7,0.2,2.4
			c0.5,0.7,1.3,1,2.2,0.9l0.5-0.1c0.5-0.1,1-0.1,1.5-0.1l3.8,0.2c0.6,0,1.1-0.2,1.5-0.6l0,0C22.5,22.8,22.6,22.6,22.5,22.4
			L22.5,22.4z M8.1,3.2c0,0.3-0.3,0.5-0.5,0.5c0,0-0.1,0-0.1,0L3.7,3C3.4,3,3.2,2.7,3.3,2.4c0-0.3,0.3-0.5,0.6-0.5l3.8,0.6
			C8,2.6,8.2,2.9,8.1,3.2L8.1,3.2z M9.1,3.8c-0.3,0-0.5-0.2-0.5-0.5c0-0.3,0.2-0.5,0.5-0.5c0.3,0,0.5,0.2,0.5,0.5
			C9.6,3.5,9.4,3.8,9.1,3.8L9.1,3.8z M9.1,3.8"/>
	</g>
</g>
</svg>
