<svg xmlns="http://www.w3.org/2000/svg" width="24" height="24" viewBox="0 0 24 24">
<g>
	<g>
		<g>
			<rect x="11.1" y="2.5" width="1.9" height="5.7"/>
		</g>
	</g>
	<g>
		<g>
			<rect x="0.5" y="15.9" width="2.8" height="1.9"/>
		</g>
	</g>
	<g>
		<g>
			<rect x="0.5" y="19.6" width="22.9" height="1.9"/>
		</g>
	</g>
	<g>
		<g>
			<rect x="20.6" y="15.9" width="2.8" height="1.9"/>
		</g>
	</g>
	<g>
		<g>
			<rect x="2.6" y="5" transform="matrix(0.7072 -0.707 0.707 0.7072 -4.8613 4.954)" width="1.9" height="6.7"/>
		</g>
	</g>
	<g>
		<g>
			<rect x="17.1" y="7.4" transform="matrix(0.7071 -0.7071 0.7071 0.7071 9.589691e-02 16.9314)" width="6.7" height="1.9"/>
		</g>
	</g>
	<g>
		<g>
			<path d="M12,10.1c-3.7,0-6.7,3-6.7,6.7c0,0.3,0,0.6,0.1,0.9h13.3c0-0.3,0.1-0.6,0.1-0.9C18.7,13,15.7,10.1,12,10.1z"/>
		</g>
	</g>
</g>
</svg>
