<?xml version="1.0" encoding="utf-8"?><svg id="intro" image-rendering="auto" baseProfile="basic" version="1.1" viewBox="0 0 24 24" width="24" height="24" xmlns="http://www.w3.org/2000/svg" xmlns:xlink="http://www.w3.org/1999/xlink"><g id="Scena-1r1" overflow="visible"><g id="Interpolazione-2" transform="translate(12 12.05)"><animateTransform attributeName="transform" additive="replace" type="translate" dur="0.24s" keyTimes="0;.167;.333;.5;.667;.833;1" values="12,22.05;12.084,22.104;12.088,22.078;12.128,22.07;12.068,22.071;12.05,22.05;12.05,22.05" keySplines=".25 .5 .5 1;.25 .5 .5 1;.25 .5 .5 1;.25 .5 .5 1;.25 .5 .5 1;0 0 1 1" calcMode="spline" fill="freeze"/><animateTransform attributeName="transform" additive="sum" type="rotate" dur="0.24s" keyTimes="0;.167;.333;.5;.667;.833;1" values="0,0,0;-19,0,0;19,0,0;-9,0,0;9,0,0;0,0,0;0,0,0" keySplines=".25 .5 .5 1;.25 .5 .5 1;.25 .5 .5 1;.25 .5 .5 1;.25 .5 .5 1;0 0 1 1" calcMode="spline" fill="freeze"/><animateTransform attributeName="transform" additive="sum" type="scale" dur="0.24s" keyTimes="0;.167;.667;.833;1" values="1,1;1,.999;1,.999;1,1;1,1" keySplines=".25 .5 .5 1;.25 .5 .5 1;.25 .5 .5 1;0 0 1 1" calcMode="spline" fill="freeze"/><animateTransform attributeName="transform" additive="sum" type="translate" dur="0.24s" keyTimes="0;.167;.333;.5;.667;.833;1" values="0,-10;-.1,-10.15;-.1,-10.05;-.15,-10.15;-.15,-10.15;-.1,-10.1;-.1,-10.1" keySplines=".25 .5 .5 1;.25 .5 .5 1;.25 .5 .5 1;.25 .5 .5 1;.25 .5 .5 1;0 0 1 1" calcMode="spline" fill="freeze"/><path stroke="none" d="M7 -3Q7 -5.9 4.95 -7.95 2.9 -10 0 -10 -2.9 -10 -4.95 -7.95 -7 -5.9 -7 -3 -7 .3 -3.5 5.45 -1.75 8.05 0 10 1.75 8.05 3.5 5.45 7 .3 7 -3M0 -5.5Q1 -5.5 1.75 -4.75 2.5 -4 2.5 -3 2.5 -1.95 1.75 -1.2 1 -.5 0 -.5 -1.05 -.5 -1.75 -1.2 -2.5 -1.95 -2.5 -3 -2.5 -4 -1.75 -4.75 -1.05 -5.5 0 -5.5Z"/></g></g></svg>