<svg xmlns="http://www.w3.org/2000/svg" width="24" height="24" viewBox="0 0 24 24">
<g>
	<g>
		<path class="st0" d="M19.3,5.1c-0.8-0.2-1.5,0.3-1.6,1.1L17,9.4c0,0.1-0.1,0.2-0.2,0.2c-0.1,0-0.2-0.1-0.2-0.3l0.5-5.9
			c0.1-0.8-0.5-1.6-1.3-1.7c-0.9-0.1-1.7,0.5-1.7,1.4l-0.4,5c0,0.1-0.1,0.2-0.2,0.2c-0.1,0-0.3-0.1-0.3-0.2V2.1
			c0-0.8-0.6-1.5-1.5-1.6C10.8,0.5,10,1.2,10,2v6c0,0.1-0.1,0.2-0.2,0.2c-0.1,0-0.2-0.1-0.3-0.2L9.1,3.2C9,2.3,8.2,1.7,7.4,1.8
			C6.5,1.9,5.9,2.7,6,3.5l1.2,10.1c0,0.1,0,0.2-0.1,0.3c-0.1,0.1-0.3,0.1-0.4,0l-2.5-2.6c-0.6-0.6-1.5-0.7-2.1-0.1
			c-0.7,0.6-0.7,1.6-0.1,2.2c0,0,2.7,2.7,4.8,4.8c0.7,0.7,1.1,1.6,1.2,2.6c0.2,1.5,1.4,2.7,3,2.7h3.8c1.4,0,2.7-1,2.9-2.4l2.8-14.4
			C20.6,6,20.1,5.2,19.3,5.1L19.3,5.1z M17.2,17.7L16.9,20c-0.1,0.7-0.3,1.4-0.8,1.9c-0.1,0.1-0.3,0.2-0.5,0.2c-0.1,0-0.2,0-0.4-0.1
			c-0.2-0.2-0.3-0.6-0.1-0.8c0.3-0.4,0.5-0.9,0.5-1.4l0,0l0.4-2.3c0-0.3,0.3-0.5,0.7-0.5C17,17.1,17.3,17.4,17.2,17.7L17.2,17.7z
			 M17,16.5c-0.3,0-0.6-0.3-0.6-0.6c0-0.3,0.3-0.6,0.6-0.6c0.3,0,0.6,0.3,0.6,0.6C17.5,16.2,17.3,16.5,17,16.5L17,16.5z M17,16.5"/>
	</g>
</g>
</svg>
