<svg xmlns="http://www.w3.org/2000/svg" width="24" height="24" viewBox="0 0 24 24">
<g>
	<g>
		<path class="st0" d="M22.5,19.2c-0.1-0.4-0.5-0.8-0.9-0.9l-0.3-0.1c-1.9-0.3-6.9-0.9-10.9-5.6c-0.7-0.9-1.5-1.4-1.6-4.1V2.8
			C8.7,2.4,8.4,2,7.9,2H2.8C2.6,2,2.4,2.1,2.2,2.3C2.1,2.4,2,2.6,2,2.9l0.6,8.6c0.1,1.1-0.1,2.2-0.5,3.1L2,15
			c-0.8,1.6-0.7,3.5,0.4,5c1,1.5,2.8,2.2,4.6,1.9l1-0.2c1-0.2,2.1-0.2,3.1-0.2l8,0.3c1.2,0,2.4-0.4,3.2-1.4l0,0
			C22.5,20.2,22.6,19.7,22.5,19.2L22.5,19.2z M4,13.3c0.1-0.3,0.4-0.5,0.7-0.4C5,13,5.2,13.3,5.1,13.6C5,13.9,4.6,14.1,4.3,14
			C4,13.9,3.9,13.6,4,13.3L4,13.3z M6.7,18.3c-0.1,0.2-0.3,0.4-0.5,0.4c-0.1,0-0.2,0-0.2,0c-1.3-0.6-2.1-1.8-2.1-3.3l0-0.3
			c0-0.3,0.3-0.6,0.6-0.6h0C4.8,14.4,5,14.7,5,15l0,0.3c0,1,0.6,1.8,1.4,2.2C6.7,17.6,6.9,18,6.7,18.3L6.7,18.3z M6.7,18.3"/>
	</g>
</g>
</svg>
