<svg version="1.1" id="Layer_1" xmlns="http://www.w3.org/2000/svg" xmlns:xlink="http://www.w3.org/1999/xlink" width="24" height="24" viewBox="0 0 24 24" style="enable-background:new 0 0 24 24;" xml:space="preserve">
<style type="text/css">
	.st0{fill:none;}
</style>
<path class="st0" d="M0,0h24v24H0V0z"/>
<path d="M9.6,14.4H2.5c-0.3,0-0.6-0.3-0.6-0.6v-3c0-0.3,0.3-0.6,0.6-0.6h7.2c0.3,0,0.6,0.3,0.6,0.6v3C10.2,14.1,9.9,14.4,9.6,14.4z
	 M13.2,5.7H6.6v2.7C6.6,8.8,6.4,9,6,9C5.7,9,5.4,8.8,5.4,8.4V5.1c0-0.3,0.3-0.6,0.6-0.6h7.2c0-0.8,0.7-1.5,1.5-1.5h5.4
	c0.8,0,1.5,0.7,1.5,1.5v1.8c0,0.8-0.7,1.5-1.5,1.5H18v8.9l3.9,2.2c0.4,0.2,0.4,0.8,0,1l-4.2,2.4c-0.2,0.1-0.4,0.1-0.6,0L13,20H6
	c-0.3,0-0.6-0.3-0.6-0.6v-3.3c0-0.3,0.3-0.6,0.6-0.6c0.3,0,0.6,0.3,0.6,0.6v2.7H13l3.7-2.1V7.8h-2.1c-0.8,0-1.5-0.7-1.5-1.5V5.7z"/>
</svg>
