<svg xmlns="http://www.w3.org/2000/svg" width="24" height="24" viewBox="0 0 24 24">
<g>
	<path d="M15.8,7.4c-0.9,0-1.4,0.8-1.8,2l-0.5-0.6V3.6c0-0.4-0.7-0.8-1.5-0.8c-0.8,0-1.5,0.3-1.5,0.8v5.2L9.9,9.4
		c-0.3-1.2-0.9-2-1.8-2c-3,0-7.7,6.1-7.7,10.7c0,1.5,2.4,3.1,5.4,3.1c3,0,4.5-1.6,4.5-3.1c0-0.8,0.2-4.1-0.1-6.8l1.7-2l1.7,2
		c-0.3,2.7-0.1,6-0.1,6.8c0,1.5,1.6,3.1,4.5,3.1c3,0,5.4-1.6,5.4-3.1C23.5,13.5,18.8,7.4,15.8,7.4L15.8,7.4z M4,13.7
		c-0.3,0-0.6-0.3-0.6-0.6c0-0.3,0.3-0.6,0.6-0.6c0.3,0,0.6,0.3,0.6,0.6C4.6,13.4,4.3,13.7,4,13.7L4,13.7z M7.6,9.9
		c0,0-1.1,0.5-2.1,2c-0.1,0.2-0.3,0.3-0.5,0.3c-0.1,0-0.2,0-0.3-0.1c-0.3-0.2-0.4-0.5-0.2-0.8c1.2-1.9,2.6-2.5,2.7-2.5
		c0.3-0.1,0.6,0,0.8,0.3C8.1,9.4,7.9,9.8,7.6,9.9L7.6,9.9z M7.6,9.9"/>
</g>
</svg>
