<svg xmlns="http://www.w3.org/2000/svg" width="24" height="24" viewBox="0 0 24 24">
<g>
	<g>

		<path class="st0" d="M19.4,5.6L16.5,5c-1-0.2-1.7-1.1-1.7-2.1V1.8c0-0.3-0.3-0.6-0.6-0.6H9.7c-0.3,0-0.6,0.3-0.6,0.6V3
			c0,1-0.7,1.9-1.7,2.1L4.5,5.6C3,5.9,1.9,7.3,2,8.8l1,13.4c0,0.3,0.3,0.5,0.6,0.5H6l0.5-3.1l-1.9-8.3c-0.1-0.4,0.1-0.7,0.5-0.8
			c0.4-0.1,0.7,0.1,0.8,0.5l1.9,8.5l-0.5,3.2h9.3l-0.5-3.2l1.9-8.5c0.1-0.4,0.4-0.6,0.8-0.5c0.4,0.1,0.6,0.4,0.5,0.8l-1.9,8.3
			l0.5,3.1h2.4c0.3,0,0.5-0.2,0.6-0.5l1-13.4C22,7.3,21,5.9,19.4,5.6L19.4,5.6z M12.5,17.5c0,0.3-0.2,0.5-0.5,0.5
			c-0.3,0-0.5-0.2-0.5-0.5V7.8c0-0.3,0.2-0.5,0.5-0.5c0.3,0,0.5,0.2,0.5,0.5V17.5z M12.5,17.5"/>
	</g>
</g>
</svg>
