<svg xmlns="http://www.w3.org/2000/svg" width="24" height="24" viewBox="0 0 24 24">

<g>
	<g>
		<path class="st0" d="M22.9,14.2l-0.5,0c0.2-0.1,0.3-0.2,0.3-0.4c0-0.3-0.3-0.5-0.6-0.5l-3.8,0.1c-0.1,0-0.2,0-0.2-0.1
			c0-0.1,0-0.2,0.1-0.2l0.7-0.6c0.3-0.2,0.3-0.6,0.1-0.8c-0.2-0.3-0.6-0.3-0.8-0.1c0,0-1.6,1.3-2.1,1.7c-0.9,0.7-2,1-3.1,0.9
			c-2.5-0.2-5.1-0.4-6.2-0.1L6.6,4.9c0-0.3-0.2-0.5-0.5-0.5H1c-0.1,0-0.3,0.1-0.4,0.2C0.5,4.7,0.5,4.9,0.5,5l2.3,11.1
			c0.3,1.6,1.9,2.7,3.5,2.5c2.6-0.4,5.5-1,7.9-1.5c0.8-0.2,1.5-0.2,2.3-0.1c2.3,0.3,4,0.3,4.3,0.3c0.3,0,0.6-0.1,0.6-0.4
			c0-0.2-0.1-0.3-0.3-0.4l1,0c0.3,0,0.6-0.3,0.6-0.6c0-0.2-0.1-0.4-0.3-0.5l0.6,0c0.3,0,0.6-0.3,0.6-0.6
			C23.5,14.4,23.2,14.2,22.9,14.2L22.9,14.2z M1.4,6.1c0-0.3,0.2-0.5,0.5-0.5c0.3,0,0.5,0.2,0.5,0.5c0,0.3-0.2,0.5-0.5,0.5
			C1.7,6.7,1.4,6.4,1.4,6.1L1.4,6.1z M3,11.6c0,0-0.1,0-0.1,0c-0.3,0-0.5-0.2-0.5-0.4L1.7,7.6C1.7,7.3,1.9,7,2.2,7
			c0.3-0.1,0.6,0.1,0.6,0.4L3.5,11C3.5,11.3,3.3,11.6,3,11.6L3,11.6z M3,11.6"/>
	</g>
</g>
</svg>
