<svg xmlns="http://www.w3.org/2000/svg" width="24" height="24" viewBox="0 0 24 24">

<g>
	<path class="st0" d="M9.3,15.2l-2,8.5h3.4c0.4,0,0.7-0.3,0.8-0.7l0.5-2.1h3.9c1.8,0,3.8-3,4.1-4.9c0.1-0.6,0.2-1.2,0.3-1.9h-9.6
		c-0.7,0-0.7,0.2-0.9,0.8L9.3,15.2z M11.4,15.2"/>
	<path class="st0" d="M21.8,12.6l-1.5-3.1c-0.3-5.2-3.2-9.2-7.9-9.2C4.5,0.3,3,4.5,3,8.8c0,2.1,0.9,4.1,2.4,5.5l-1.9,8.4
		c-0.1,0.2,0,0.5,0.1,0.6c0.1,0.2,0.4,0.3,0.6,0.3h3.6l1.6-7.2c0.3-1.4,1.5-2.3,2.9-2.3l8.8,0c0.3,0,0.6-0.2,0.8-0.5
		C22,13.3,22,12.9,21.8,12.6L21.8,12.6z M7.2,4C7.1,4.1,5.5,5.2,5.6,7.4C5.6,7.7,5.3,8,5,8c0,0,0,0,0,0C4.7,8,4.4,7.7,4.4,7.4
		C4.3,4.6,6.4,3.1,6.5,3c0.3-0.2,0.6-0.1,0.8,0.1C7.5,3.4,7.4,3.8,7.2,4L7.2,4z M8.4,3.3C8,3.3,7.8,3,7.8,2.7c0-0.3,0.3-0.6,0.6-0.6
		C8.7,2.1,9,2.4,9,2.7C9,3,8.7,3.3,8.4,3.3L8.4,3.3z M8.4,3.3"/>
</g>
</svg>
