<?xml version="1.0" encoding="utf-8"?>
<!-- Generator: Adobe Illustrator 23.1.0, SVG Export Plug-In . SVG Version: 6.00 Build 0)  -->
<svg version="1.1" id="Layer_1" xmlns="http://www.w3.org/2000/svg" xmlns:xlink="http://www.w3.org/1999/xlink" x="0px" y="0px"
	 viewBox="0 0 24 24" style="enable-background:new 0 0 24 24;" xml:space="preserve">
<style type="text/css">
	.st0{fill:none;}
	.st1{fill:#FF0000;}
</style>
<path class="st0" d="M0,0h24v24H0V0z"/>
<path class="st1" d="M15,7.3l-3,3l-3-3L7.3,9l3,3l-3,3L9,16.7l3-3l3,3l1.6-1.6l-3-3l3-3L15,7.3z M12,0.4C5.6,0.4,0.4,5.6,0.4,12
	S5.6,23.6,12,23.6S23.6,18.4,23.6,12S18.4,0.4,12,0.4z M12,21.3c-5.1,0-9.3-4.2-9.3-9.3S6.9,2.7,12,2.7s9.3,4.2,9.3,9.3
	S17.1,21.3,12,21.3z"/>
</svg>
