<?xml version="1.0" encoding="utf-8"?>
<svg version="1.1" id="footer_skilla_logo" xmlns="http://www.w3.org/2000/svg" xmlns:xlink="http://www.w3.org/1999/xlink" x="0px"
	 y="0px" viewBox="0 0 36 24" style="enable-background:new 0 0 36 24;" xml:space="preserve">
<style type="text/css">
	.st_skilla{fill:#0000D2;}
</style>
<g id="Skilla_4_">
	<path class="st_skilla" d="M18.5,10.7v4.6H17v-4.6C17,10.7,18.5,10.7,18.5,10.7z"/>
	<path class="st_skilla" d="M19.4,8.4h1.5v6.9h-1.5V8.4z"/>
	<path class="st_skilla" d="M21.8,9.1h1.5v6.1h-1.5V9.1z"/>
	<path class="st_skilla" d="M26.1,10.6c0.6,0,1.1,0.2,1.4,0.5v-0.4H29v4.6h-1.5v-0.4c-0.4,0.4-0.8,0.5-1.4,0.5c-1.3,0-2.2-1.1-2.2-2.4
		C23.9,11.6,24.8,10.6,26.1,10.6z M26.5,11.9c-0.6,0-1,0.5-1,1.1s0.4,1.1,1,1.1s1-0.4,1-1.1C27.5,12.4,27.1,11.9,26.5,11.9z"/>
	<g>
		<g>
			<path class="st_skilla" d="M9.6,12.2c0-0.3-0.3-0.4-0.6-0.4c-0.4,0-0.4,0.2-0.4,0.3c0,0.2,0.4,0.3,0.8,0.4c0.4,0.1,0.8,0.2,1.1,0.4
				c0.4,0.3,0.6,0.6,0.6,1.1c0,0.4-0.2,0.8-0.5,1.1c-0.4,0.3-0.8,0.4-1.4,0.4c-1.1,0-1.9-0.5-2.1-1.3l0,0l1.5-0.4l0,0
				c0,0.3,0.3,0.5,0.6,0.5s0.5-0.1,0.5-0.3s-0.3-0.3-0.8-0.4c-0.4-0.1-0.8-0.2-1.1-0.4c-0.4-0.2-0.6-0.6-0.6-1.1
				c0-0.4,0.2-0.8,0.5-1.1C8,10.7,8.5,10.5,9,10.5c0.6,0,1.1,0.2,1.4,0.5c0.3,0.2,0.4,0.5,0.5,0.8l0,0L9.6,12.2z"/>
		</g>
	</g>
	<g>
		<g>
			<path class="st_skilla" d="M13.1,13.3v2h-1.5V9.1h1.5v4l1.5-2.4h1.8l-1.3,2l1.5,2.6h-1.8l-1.1-2C13.7,13.3,13.1,13.3,13.1,13.3z"/>
		</g>
	</g>
</g>
</svg>
