<svg id="e3bvtwsva8cb1" xmlns="http://www.w3.org/2000/svg" xmlns:xlink="http://www.w3.org/1999/xlink" viewBox="0 0 280 100" shape-rendering="geometricPrecision" text-rendering="geometricPrecision" width="280" height="100"><style><![CDATA[#e3bvtwsva8cb3_to {animation: e3bvtwsva8cb3_to__to 3000ms linear 1 normal forwards}@keyframes e3bvtwsva8cb3_to__to { 0% {transform: translate(138.130000px,142.309894px)} 6.666667% {transform: translate(138.130000px,142.309894px)} 16.666667% {transform: translate(138.130000px,76.309894px)} 100% {transform: translate(138.130000px,76.309894px)} }#e3bvtwsva8cb4_to {animation: e3bvtwsva8cb4_to__to 3000ms linear 1 normal forwards}@keyframes e3bvtwsva8cb4_to__to { 0% {transform: translate(155.950000px,133.579894px)} 10% {transform: translate(155.950000px,133.579894px)} 20% {transform: translate(155.950000px,67.579894px)} 100% {transform: translate(155.950000px,67.579894px)} }#e3bvtwsva8cb5_to {animation: e3bvtwsva8cb5_to__to 3000ms linear 1 normal forwards}@keyframes e3bvtwsva8cb5_to__to { 0% {transform: translate(173.769992px,136.534894px)} 13.333333% {transform: translate(173.769992px,136.534894px)} 23.333333% {transform: translate(173.769992px,70.534894px)} 100% {transform: translate(173.769992px,70.534894px)} }#e3bvtwsva8cb6_to {animation: e3bvtwsva8cb6_to__to 3000ms linear 1 normal forwards}@keyframes e3bvtwsva8cb6_to__to { 0% {transform: translate(203.115001px,142.304892px)} 16.666667% {transform: translate(203.115001px,142.304892px)} 26.666667% {transform: translate(203.115001px,76.304892px)} 100% {transform: translate(203.115001px,76.304892px)} }#e3bvtwsva8cb9_to {animation: e3bvtwsva8cb9_to__to 3000ms linear 1 normal forwards}@keyframes e3bvtwsva8cb9_to__to { 0% {transform: translate(73.090003px,142.364898px)} 10% {transform: translate(72.690533px,76.388747px)} 100% {transform: translate(72.690533px,76.388747px)} }#e3bvtwsva8cb12_to {animation: e3bvtwsva8cb12_to__to 3000ms linear 1 normal forwards}@keyframes e3bvtwsva8cb12_to__to { 0% {transform: translate(110.830001px,136.544896px)} 3.333333% {transform: translate(110.830001px,136.544896px)} 13.333333% {transform: translate(110.870001px,70.788746px)} 100% {transform: translate(110.870001px,70.788746px)} }]]></style><g id="e3bvtwsva8cb2"><g id="e3bvtwsva8cb3_to" transform="translate(138.130000,142.309894)"><path id="e3bvtwsva8cb3" d="M143.850000,59.540000L143.850000,93.670000L132.400000,93.670000L132.400000,59.540000L143.850000,59.540000Z" transform="translate(-138.125000,-76.605000)" fill="rgb(0,0,210)" stroke="none" stroke-width="1"/></g><g id="e3bvtwsva8cb4_to" transform="translate(155.950000,133.579894)"><path id="e3bvtwsva8cb4" d="M150.220000,42.080000L161.670000,42.080000L161.670000,93.670000L150.220000,93.670000L150.220000,42.080000Z" transform="translate(-155.945000,-67.875000)" fill="rgb(0,0,210)" stroke="none" stroke-width="1"/></g><g id="e3bvtwsva8cb5_to" transform="translate(173.769992,136.534894)"><path id="e3bvtwsva8cb5" d="M168.040000,47.990000L179.490000,47.990000L179.490000,93.670000L168.040000,93.670000L168.040000,47.990000Z" transform="translate(-173.764992,-70.830000)" fill="rgb(0,0,210)" stroke="none" stroke-width="1"/></g><g id="e3bvtwsva8cb6_to" transform="translate(203.115001,142.304892)"><path id="e3bvtwsva8cb6" d="M200.460000,58.650000C204.840000,58.650000,208.300000,59.990000,210.780000,62.610000L210.780000,59.570000L222.160000,59.570000L222.160000,93.700000L210.780000,93.700000L210.780000,90.520000C208.170000,93.280000,204.490000,94.550000,200.460000,94.550000C190.710000,94.550000,184.060000,86.560000,184.060000,76.530000C184.060000,66.490000,190.710000,58.650000,200.460000,58.650000ZM203.290000,68.540000C198.550000,68.540000,195.660000,71.930000,195.660000,76.530000C195.660000,81.270000,198.560000,84.590000,203.290000,84.590000C208.020000,84.590000,210.920000,81.270000,210.920000,76.530000C210.920000,71.930000,208.020000,68.540000,203.290000,68.540000Z" transform="translate(-203.110001,-76.599998)" fill="rgb(0,0,210)" stroke="none" stroke-width="1"/></g><g id="e3bvtwsva8cb7"><g id="e3bvtwsva8cb8"><g id="e3bvtwsva8cb9_to" transform="translate(73.090003,142.364898)"><path id="e3bvtwsva8cb9" d="M77.310000,70.650000C76.990000,68.550000,75.350000,67.350000,72.820000,67.350000C69.970000,67.350000,69.550000,68.670000,69.550000,69.450000C69.550000,71.190000,72.340000,71.860000,75.580000,72.640000C78.320000,73.300000,81.430000,74.050000,83.900000,75.640000C86.840000,77.530000,88.290000,80.220000,88.340000,83.860000C88.340000,86.990000,86.940000,89.800000,84.400000,91.780000C81.790000,93.820000,78.140000,94.890000,73.860000,94.890000C65.710000,94.890000,59.450000,90.850000,57.840000,84.820000C57.840000,84.810000,57.830000,84.790000,57.830000,84.790000L68.940000,82.150000L68.980000,82.520000C69.200000,84.620000,71.110000,86.030000,73.730000,86.030000C75.900000,86.030000,77.310000,85.160000,77.310000,83.810000C77.310000,82.120000,74.980000,81.490000,71.180000,80.610000C68.440000,79.970000,65.340000,79.250000,62.900000,77.700000C59.990000,75.860000,58.580000,73.220000,58.580000,69.640000C58.580000,66.520000,59.940000,63.700000,62.400000,61.690000C65.020000,59.560000,68.720000,58.430000,73.120000,58.430000C77.470000,58.430000,81.160000,59.620000,83.790000,61.870000C85.680000,63.490000,87.010000,65.630000,87.690000,68.140000C87.690000,68.150000,87.700000,68.160000,87.700000,68.180000L77.310000,70.650000Z" transform="translate(-73.085003,-76.660004)" fill="rgb(0,0,210)" stroke="none" stroke-width="1"/></g></g></g><g id="e3bvtwsva8cb10"><g id="e3bvtwsva8cb11"><g id="e3bvtwsva8cb12_to" transform="translate(110.830001,136.544896)"><path id="e3bvtwsva8cb12" d="M103.730000,78.910000L103.730000,93.670000L92.290000,93.670000L92.290000,48.010000L103.730000,48.010000L103.730000,77.510000L114.690000,59.550000L127.950000,59.550000L118.270000,74.450000L129.360000,93.660000L116.220000,93.660000L108.030000,78.900000L103.730000,78.900000Z" transform="translate(-110.825001,-70.840002)" fill="rgb(0,0,210)" stroke="none" stroke-width="1"/></g></g></g></g></svg>