<?xml version="1.0" encoding="utf-8"?>
<!-- Generator: Adobe Illustrator 25.2.1, SVG Export Plug-In . SVG Version: 6.00 Build 0)  -->
<svg version="1.1" id="Livello_1" xmlns="http://www.w3.org/2000/svg" xmlns:xlink="http://www.w3.org/1999/xlink" x="0px" y="0px"
	 viewBox="0 0 200 90" style="enable-background:new 0 0 200 90;" xml:space="preserve">
<style type="text/css">
	.st001{fill:url(#SVGID_1_);}
	.st01{fill:url(#SVGID_2_);}
	.st02{fill:url(#SVGID_3_);}
	.st03{fill:url(#SVGID_4_);}
	.st04{fill:url(#SVGID_5_);}
	.st05{fill:url(#SVGID_6_);}
	.st06{fill:url(#SVGID_7_);}
	.st07{fill:url(#SVGID_8_);}
	.st08{fill:url(#SVGID_9_);}
	.st09{fill:url(#SVGID_10_);}
</style>
<g>
	<linearGradient id="SVGID_1_" gradientUnits="userSpaceOnUse" x1="115.6321" y1="116.2438" x2="63.8289" y2="26.518">
		<stop  offset="0.494" style="stop-color:#005CA8"/>
		<stop  offset="0.6789" style="stop-color:#005CA8"/>
		<stop  offset="0.8459" style="stop-color:#00A7AF"/>
		<stop  offset="1" style="stop-color:#AECA37"/>
	</linearGradient>
	<path class="st001" d="M96.6,58.6v8.7H74.8c-6.1,0-11.2-2.1-15.5-6.4c-4.3-4.3-6.4-9.5-6.4-15.5c0-6.1,2.1-11.2,6.4-15.5
		c4.3-4.3,9.5-6.5,15.5-6.5c5.2,0,9.9,1.7,13.9,5c4,3.3,6.5,7.4,7.5,12.5h-9.1c-0.9-2.6-2.5-4.7-4.7-6.3c-2.3-1.6-4.8-2.4-7.7-2.4
		c-3.6,0-6.7,1.3-9.3,3.8c-2.6,2.6-3.9,5.7-3.9,9.3c0,3.6,1.3,6.7,3.9,9.3c2.6,2.6,5.6,3.9,9.3,3.9H96.6z"/>
	<linearGradient id="SVGID_2_" gradientUnits="userSpaceOnUse" x1="184.0986" y1="104.6279" x2="109.4996" y2="30.029">
		<stop  offset="0.494" style="stop-color:#005CA8"/>
		<stop  offset="0.6789" style="stop-color:#005CA8"/>
		<stop  offset="0.8459" style="stop-color:#00A7AF"/>
		<stop  offset="1" style="stop-color:#AECA37"/>
	</linearGradient>
	<path class="st01" d="M120.6,49.8h-8c0.9,2.6,2.5,4.7,4.7,6.3c2.3,1.7,4.8,2.5,7.7,2.5h21.9v8.7h-21.9c-6.1,0-11.2-2.1-15.5-6.4
		c-4.3-4.3-6.4-9.5-6.4-15.5c0-6.1,2.1-11.2,6.4-15.5c4.3-4.3,9.5-6.5,15.5-6.5c6.1,0,11.2,2.2,15.5,6.5c4.3,4.3,6.5,9.4,6.5,15.5
		v4.4L120.6,49.8L120.6,49.8z M124.9,32.3c-2.8,0-5.4,0.8-7.7,2.4c-2.2,1.6-3.8,3.7-4.7,6.3h24.7c-0.9-2.6-2.5-4.7-4.7-6.3
		C130.3,33.1,127.8,32.3,124.9,32.3z"/>
	<linearGradient id="SVGID_3_" gradientUnits="userSpaceOnUse" x1="216.3051" y1="115.984" x2="164.6634" y2="26.538">
		<stop  offset="0.494" style="stop-color:#005CA8"/>
		<stop  offset="0.6789" style="stop-color:#005CA8"/>
		<stop  offset="0.8459" style="stop-color:#00A7AF"/>
		<stop  offset="1" style="stop-color:#AECA37"/>
	</linearGradient>
	<path class="st02" d="M175.6,23.5c6.1,0,11.2,2.2,15.5,6.5c4.3,4.3,6.5,9.4,6.5,15.5v21.9h-21.9c-6.1,0-11.2-2.1-15.5-6.4
		c-4.3-4.3-6.4-9.5-6.4-15.5c0-6.1,2.1-11.2,6.4-15.5C164.3,25.6,169.5,23.5,175.6,23.5z M188.7,45.4c0-3.6-1.3-6.7-3.8-9.3
		c-2.6-2.6-5.6-3.8-9.3-3.8c-3.6,0-6.7,1.3-9.3,3.8c-2.6,2.6-3.9,5.7-3.9,9.3c0,3.6,1.3,6.7,3.9,9.3c2.6,2.6,5.7,3.9,9.3,3.9h13.1
		V45.4z"/>
	<linearGradient id="SVGID_4_" gradientUnits="userSpaceOnUse" x1="12.7709" y1="34.8632" x2="47.8004" y2="66.7082">
		<stop  offset="1.598210e-02" style="stop-color:#E7E000"/>
		<stop  offset="0.597" style="stop-color:#00A7AF"/>
		<stop  offset="1" style="stop-color:#005CA8"/>
	</linearGradient>
	<path class="st03" d="M24.4,23.5c6.1,0,11.2,2.2,15.5,6.5c4.3,4.3,6.5,9.4,6.5,15.5v21.9H24.4c-6.1,0-11.2-2.1-15.5-6.4
		c-4.3-4.3-6.4-9.5-6.4-15.5c0-6.1,2.1-11.2,6.4-15.5C13.2,25.6,18.4,23.5,24.4,23.5z M37.5,45.4c0-3.6-1.3-6.7-3.8-9.3
		c-2.6-2.6-5.6-3.8-9.3-3.8c-3.6,0-6.7,1.3-9.3,3.8c-2.6,2.6-3.9,5.7-3.9,9.3c0,3.6,1.3,6.7,3.9,9.3c2.6,2.6,5.7,3.9,9.3,3.9h13.1
		V45.4z"/>
	<g>
		<linearGradient id="SVGID_5_" gradientUnits="userSpaceOnUse" x1="-29.9676" y1="2.0296" x2="37.6188" y2="67.1425">
			<stop  offset="0.494" style="stop-color:#005CA8"/>
			<stop  offset="0.6789" style="stop-color:#005CA8"/>
			<stop  offset="0.8459" style="stop-color:#00A7AF"/>
			<stop  offset="1" style="stop-color:#AECA37"/>
		</linearGradient>
		<path class="st04" d="M8.9,60.9c4.3,4.3,9.5,6.4,15.5,6.4h13.1v-8.7H24.4c-3.6,0-6.7-1.3-9.3-3.9c-2.6-2.6-3.9-5.6-3.9-9.3
			c0-3.6,1.3-6.7,3.9-9.3c2.4-2.4,5.3-3.7,8.6-3.8C18,32.5,13,34.6,8.9,38.7c-3.2,3.2-5.2,6.9-6,11.1C3.7,54,5.7,57.7,8.9,60.9z"/>
		<linearGradient id="SVGID_6_" gradientUnits="userSpaceOnUse" x1="27.4836" y1="35.346" x2="21.3637" y2="29.2261">
			<stop  offset="0.494" style="stop-color:#005CA8"/>
			<stop  offset="0.6789" style="stop-color:#005CA8"/>
			<stop  offset="0.8459" style="stop-color:#00A7AF"/>
			<stop  offset="1" style="stop-color:#AECA37"/>
		</linearGradient>
		<polygon class="st05" points="24.4,32.3 24.4,32.3 24.4,32.3 		"/>
	</g>
	<g>
		<linearGradient id="SVGID_7_" gradientUnits="userSpaceOnUse" x1="95.4739" y1="65.7289" x2="54.9526" y2="39.2455">
			<stop  offset="1.598210e-02" style="stop-color:#E7E000"/>
			<stop  offset="0.597" style="stop-color:#00A7AF"/>
			<stop  offset="1" style="stop-color:#005CA8"/>
		</linearGradient>
		<path class="st06" d="M59.2,60.9c4.3,4.3,9.5,6.4,15.5,6.4h21.8v-8.7H74.8c-3.6,0-6.7-1.3-9.3-3.9c-2.6-2.6-3.9-5.6-3.9-9.3
			c0-3.6,1.3-6.7,3.9-9.3c2.4-2.4,5.3-3.7,8.6-3.8c-5.8,0.2-10.7,2.3-14.9,6.4c-3.2,3.2-5.2,6.9-6,11.1C54.1,54,56.1,57.7,59.2,60.9
			z"/>
		<linearGradient id="SVGID_8_" gradientUnits="userSpaceOnUse" x1="71.7169" y1="29.2209" x2="77.8368" y2="35.3408">
			<stop  offset="1.598210e-02" style="stop-color:#E7E000"/>
			<stop  offset="0.597" style="stop-color:#00A7AF"/>
			<stop  offset="1" style="stop-color:#005CA8"/>
		</linearGradient>
		<polygon class="st07" points="74.8,32.3 74.8,32.3 74.8,32.3 		"/>
	</g>
	<linearGradient id="SVGID_9_" gradientUnits="userSpaceOnUse" x1="101.9464" y1="35.9625" x2="142.6942" y2="65.5293">
		<stop  offset="0" style="stop-color:#005CA8"/>
		<stop  offset="0.403" style="stop-color:#00A7AF"/>
		<stop  offset="0.984" style="stop-color:#E7E000"/>
	</linearGradient>
	<path class="st08" d="M124.9,58.6c-2.8,0-5.4-0.8-7.7-2.5c-2.2-1.6-3.8-3.7-4.7-6.3v-0.1h0c-0.5-1.4-0.7-2.8-0.7-4.3
		c0-1.5,0.3-3,0.8-4.4v0c0.9-2.6,2.5-4.7,4.7-6.3c2.1-1.5,4.5-2.3,7.1-2.4c-5.8,0.1-10.8,2.3-14.9,6.4c-3.2,3.2-5.2,6.9-6,11.1
		c0.8,4.2,2.8,7.9,6,11.1c4.3,4.3,9.5,6.4,15.5,6.4h21.9v-8.7H124.9z"/>
	<linearGradient id="SVGID_10_" gradientUnits="userSpaceOnUse" x1="155.9514" y1="35.0997" x2="184.1556" y2="63.304">
		<stop  offset="0" style="stop-color:#005CA8"/>
		<stop  offset="0.403" style="stop-color:#00A7AF"/>
		<stop  offset="0.984" style="stop-color:#E7E000"/>
	</linearGradient>
	<path class="st09" d="M160,60.9c4.3,4.3,9.5,6.4,15.5,6.4h13.1v-8.7h-13.1c-3.6,0-6.7-1.3-9.3-3.9c-2.6-2.6-3.9-5.6-3.9-9.3
		c0-3.6,1.3-6.7,3.9-9.3c2.4-2.4,5.3-3.7,8.6-3.8c-5.8,0.2-10.7,2.3-14.9,6.4c-3.2,3.2-5.2,6.9-6,11.1C154.9,54,156.9,57.7,160,60.9
		z"/>
</g>
</svg>
